<?xml version="1.0" encoding="UTF-8" standalone="no"?>
<svg
   xmlns:dc="http://purl.org/dc/elements/1.1/"
   xmlns:cc="http://creativecommons.org/ns#"
   xmlns:rdf="http://www.w3.org/1999/02/22-rdf-syntax-ns#"
   xmlns:svg="http://www.w3.org/2000/svg"
   xmlns="http://www.w3.org/2000/svg"
   xmlns:xlink="http://www.w3.org/1999/xlink"
   xmlns:sodipodi="http://sodipodi.sourceforge.net/DTD/sodipodi-0.dtd"
   xmlns:inkscape="http://www.inkscape.org/namespaces/inkscape"
   version="1.1"
   preserveAspectRatio="none"
   x="0px"
   y="0px"
   width="550px"
   height="400px"
   viewBox="0 0 550 400"
   id="svg3392"
   inkscape:version="0.91 r13725"
   sodipodi:docname="logo44.svg">
  <metadata
     id="metadata3408">
    <rdf:RDF>
      <cc:Work
         rdf:about="">
        <dc:format>image/svg+xml</dc:format>
        <dc:type
           rdf:resource="http://purl.org/dc/dcmitype/StillImage" />
      </cc:Work>
    </rdf:RDF>
  </metadata>
  <sodipodi:namedview
     pagecolor="#ffffff"
     bordercolor="#666666"
     borderopacity="1"
     objecttolerance="10"
     gridtolerance="10"
     guidetolerance="10"
     inkscape:pageopacity="0"
     inkscape:pageshadow="2"
     inkscape:window-width="1242"
     inkscape:window-height="711"
     id="namedview3406"
     showgrid="false"
     inkscape:zoom="1.9728279"
     inkscape:cx="234.13667"
     inkscape:cy="215.11707"
     inkscape:window-x="0"
     inkscape:window-y="0"
     inkscape:window-maximized="0"
     inkscape:current-layer="g3400" />
  <defs
     id="defs3394">
    <g
       id="Layer0_0_FILL">
      <path
         fill="#000000"
         stroke="none"
         d=" M 133 96.5 L 101.6 170.05 133 243.55 164.4 170 133 96.5 M 241.5 325.55 L 272.9 252 241.5 178.5 210.1 252.05 241.5 325.55 M 380.9 170 L 349.5 96.5 318.1 170.05 349.5 243.55 380.9 170 Z"
         id="path3397" />
    </g>
    <path
       id="Layer0_0_1_STROKES"
       stroke="#000000"
       stroke-width="10"
       stroke-linejoin="round"
       stroke-linecap="round"
       fill="none"
       d=" M 409.5 96.5 L 440.9 170 409.5 243.55 M 389.5 96.5 L 420.9 170 389.5 243.55 M 318.1 170.05 L 349.5 96.5 380.9 170 349.5 243.55 318.1 170.05 Z M 369.5 96.5 L 400.9 170 369.5 243.55 M 193 96.5 L 224.4 170 193 243.55 M 173 96.5 L 204.4 170 173 243.55 M 101.6 170.05 L 133 96.5 164.4 170 133 243.55 101.6 170.05 Z M 210.1 252.05 L 241.5 178.5 272.9 252 241.5 325.55 210.1 252.05 Z M 261.5 178.5 L 292.9 252 261.5 325.55 M 281.5 178.5 L 312.9 252 281.5 325.55 M 153 96.5 L 184.4 170 153 243.55 M 301.5 178.5 L 332.9 252 301.5 325.55" />
  </defs>
  <g
     transform="matrix( 1, 0, 0, 1, 0,0) "
     id="g3400"
     style="fill:#ff0000">
    <use
       xlink:href="#Layer0_0_FILL"
       id="use3402"
       style="fill:#ff0000"
       transform="translate(-1.4336918,7.1684588)"
       x="0"
       y="0"
       width="100%"
       height="100%" />
    <use
       xlink:href="#Layer0_0_1_STROKES"
       id="use3404"
       style="fill:#ff0000" />
    <path
       style="fill:#ff0000"
       d="m 130.21772,247.67017 c -2.07238,-2.90702 -33.14318,-75.65615 -33.14318,-77.6014 0,-1.5987 30.78884,-74.292593 32.36753,-76.421247 1.41738,-1.911162 3.69304,-2.37912 5.74506,-1.181398 1.56179,0.911582 2.79,3.575268 17.73411,38.461205 8.83086,20.61498 16.073,38.11695 16.09365,38.89326 0.0211,0.79186 -6.99338,17.87091 -15.97867,38.90553 -16.54591,38.73408 -16.93752,39.51763 -19.75048,39.51763 -0.66496,0 -1.23177,0.35078 -1.32558,0.82036 -0.11375,0.56936 -0.64685,0.14288 -1.74244,-1.39394 z"
       id="path3410"
       inkscape:connector-curvature="0" />
    <path
       style="fill:#ff0000"
       d="m 149.75175,246.76208 c -0.90388,-0.90388 -1.48167,-2.01386 -1.48167,-2.84641 0,-0.75061 6.96711,-17.69127 15.48246,-37.64591 l 15.48245,-36.28117 -15.48857,-36.2718 C 155.2277,113.7673 148.2606,97.034495 148.26396,96.532772 c 0.0279,-4.158328 5.22817,-6.25066 8.01962,-3.226705 1.4322,1.551499 32.67343,74.775523 32.69171,76.623713 0.0219,2.21188 -31.87408,76.5859 -33.26122,77.55749 -1.79517,1.25738 -4.28224,0.95489 -5.96232,-0.72519 z"
       id="path3412"
       inkscape:connector-curvature="0" />
    <path
       style="fill:#ff0000"
       d="m 170.20642,247.34543 c -0.61985,-0.48168 -1.37613,-1.59602 -1.68064,-2.47633 -0.51796,-1.49739 0.44487,-3.94129 14.93966,-37.92065 8.52132,-19.97606 15.4933,-36.61713 15.4933,-36.98016 0,-0.36302 -6.87645,-16.71522 -15.281,-36.33822 -9.24302,-21.58069 -15.29165,-36.334579 -15.30797,-37.339394 -0.055,-3.390308 4.08378,-5.605261 7.01875,-3.756173 1.33765,0.842751 3.45778,5.496461 17.6171,38.669777 8.85304,20.74144 16.09519,38.20245 16.09365,38.80222 -0.002,0.59977 -7.18852,17.93529 -15.97108,38.52338 -11.32469,26.54736 -16.34462,37.76454 -17.26241,38.57338 -1.55468,1.37012 -4.06938,1.47772 -5.65936,0.24217 z"
       id="path3414"
       inkscape:connector-curvature="0" />
    <path
       style="fill:#ff0000"
       d="m 189.79579,246.76208 c -0.93908,-0.93908 -1.48167,-2.00661 -1.48167,-2.91519 0,-0.78844 6.96033,-17.72365 15.46739,-37.63381 L 219.2489,170.01279 203.78151,133.8052 c -8.50706,-19.91417 -15.46739,-36.770146 -15.46739,-37.457716 0,-4.091623 5.21782,-6.089417 7.98688,-3.058009 0.55978,0.61281 8.24376,18.054785 17.07552,38.759955 12.07477,28.30806 15.96879,37.9263 15.6991,38.77682 -0.19726,0.62209 -7.51109,17.89584 -16.25295,38.38612 -10.79561,25.30409 -16.25971,37.53635 -17.03338,38.13195 -1.79863,1.38463 -4.26636,1.1449 -5.9935,-0.58224 z"
       id="path3416"
       inkscape:connector-curvature="0" />
    <path
       style="fill:#ff0000"
       d="m 239.50967,330.90516 c 0,-0.2574 -0.52805,-1.11277 -1.17345,-1.90083 -1.61246,-1.96886 -32.78795,-75.12697 -32.78795,-76.94199 0,-0.80231 7.09725,-18.12772 15.77168,-38.5009 16.61928,-39.03285 17.0227,-39.83001 20.1569,-39.83001 3.14149,0 3.2371,0.18858 20.03614,39.51676 8.80725,20.61862 16.01317,38.05647 16.01317,38.75079 0,0.69432 -7.18063,18.09622 -15.95695,38.6709 -16.46403,38.59727 -17.0091,39.6895 -19.80682,39.6895 -0.68142,0 -1.23895,0.2281 -1.23895,0.50689 0,0.27878 -0.2281,0.50688 -0.50688,0.50688 -0.27879,0 -0.50689,-0.21059 -0.50689,-0.46799 z"
       id="path3418"
       inkscape:connector-curvature="0" />
    <path
       style="fill:#ff0000"
       d="m 258.92559,329.36789 c -3.45222,-2.10495 -3.88797,-0.75969 13.26274,-40.94501 l 15.54545,-36.4241 -15.49498,-36.28064 c -8.52224,-19.95435 -15.49499,-36.89776 -15.49499,-37.65201 0,-1.79629 2.515,-4.3347 4.29472,-4.3347 3.71557,0 2.96498,-1.44811 20.55248,39.65171 l 16.32751,38.15538 -1.00153,2.78787 c -0.55084,1.53333 -7.9036,18.93413 -16.33946,38.66845 -13.54947,31.69676 -15.50524,35.96708 -16.77278,36.62255 -1.9072,0.98626 -2.93899,0.9335 -4.87916,-0.2495 z"
       id="path3420"
       inkscape:connector-curvature="0" />
    <path
       style="fill:#ff0000"
       d="m 278.55883,329.00327 c -1.26258,-1.12812 -1.63738,-1.87127 -1.62552,-3.22308 0.0101,-1.15018 5.27894,-14.0721 15.25729,-37.41874 8.38303,-19.61401 15.24187,-35.98763 15.24187,-36.38581 0,-0.39817 -6.85683,-16.7404 -15.23741,-36.31604 -9.92353,-23.17975 -15.24434,-36.20479 -15.25729,-37.34899 -0.0152,-1.34113 0.35388,-2.09084 1.55947,-3.16804 1.93794,-1.73155 4.07401,-1.83059 5.83734,-0.27065 0.9087,0.80388 6.00364,12.18123 17.26241,38.5481 8.78527,20.57418 15.97321,37.9371 15.97321,38.58425 0,1.54707 -31.71241,75.80483 -32.87385,76.97739 -0.49209,0.4968 -1.70513,1.03479 -2.69564,1.19553 -1.50092,0.24356 -2.07431,0.048 -3.44188,-1.17392 z"
       id="path3422"
       inkscape:connector-curvature="0" />
    <path
       style="fill:#ff0000"
       d="m 299.50324,329.85676 c -1.45126,-0.58566 -2.71523,-2.46828 -2.71605,-4.04543 -3.7e-4,-0.70463 6.96274,-17.60297 15.47357,-37.55185 l 15.47423,-36.27071 -15.47231,-36.21407 c -8.50977,-19.91774 -15.47288,-36.8589 -15.47357,-37.64701 -0.002,-1.85824 2.47704,-4.39626 4.29346,-4.39626 1.56819,0 4.08862,1.20655 4.46101,2.13552 0.14383,0.35879 7.39137,17.30358 16.10564,37.65507 9.20852,21.50578 15.84041,37.63959 15.83524,38.52338 -0.005,0.84997 -6.98237,17.84095 -15.81975,38.52338 -16.422,38.43298 -17.12693,39.83835 -19.94271,39.75847 -0.62287,-0.0177 -1.62131,-0.22939 -2.21876,-0.47049 z"
       id="path3424"
       inkscape:connector-curvature="0" />
    <path
       style="fill:#ff0000"
       d="m 347.47438,248.70497 c -0.34729,-0.67185 -1.02461,-1.67774 -1.50516,-2.23532 -1.30631,-1.51571 -32.45411,-74.84882 -32.45411,-76.40863 0,-1.78391 31.60414,-75.806357 32.93326,-77.135473 1.3359,-1.335899 4.60241,-1.395123 6.02333,-0.109206 1.27859,1.157108 33.02131,75.327669 33.02131,77.158129 0,0.73738 -7.09675,18.02235 -15.77055,38.41105 -16.14764,37.95676 -17.08718,39.85823 -19.69432,39.85823 -0.53933,0 -1.19248,0.37863 -1.45146,0.84138 -0.41462,0.74091 -0.54627,0.6955 -1.1023,-0.38016 z"
       id="path3426"
       inkscape:connector-curvature="0" />
    <path
       style="fill:#ff0000"
       d="m 366.57196,247.20802 c -2.91297,-2.29135 -3.25101,-1.2782 13.59373,-40.74176 8.55546,-20.04358 15.40041,-36.73413 15.23828,-37.15663 -0.1619,-0.4219 -7.13412,-16.78268 -15.49383,-36.35731 -8.35972,-19.57463 -15.19948,-35.982084 -15.19948,-36.461005 0,-2.412189 2.56902,-4.875515 5.08471,-4.875515 2.7223,0 3.51954,1.604006 19.99882,40.23661 8.78585,20.59681 15.97428,37.76915 15.97428,38.16075 0,0.39161 -7.21125,17.64048 -16.025,38.33081 -10.63678,24.96992 -16.44107,38.00227 -17.26241,38.75929 -1.56506,1.44248 -4.15019,1.48831 -5.9091,0.10476 z"
       id="path3428"
       inkscape:connector-curvature="0" />
    <path
       style="fill:#ff0000"
       d="m 387.26711,247.63153 c -1.59202,-0.91302 -2.24743,-2.03613 -2.26487,-3.88107 -0.0107,-1.13233 5.12025,-13.73689 15.26909,-37.5096 8.40687,-19.69231 15.28008,-36.0323 15.27381,-36.31108 -0.006,-0.27879 -6.88462,-16.57271 -15.28521,-36.2087 -9.60494,-22.4511 -15.27381,-36.315254 -15.27381,-37.354622 0,-3.520183 3.8837,-5.687446 6.86219,-3.829382 1.36407,0.850944 3.35699,5.208147 17.45512,38.162884 8.75338,20.46125 16.00751,37.90661 16.12029,38.76748 0.29349,2.24027 -31.31798,76.27988 -33.20003,77.7603 -1.43386,1.12788 -3.41289,1.2891 -4.95658,0.40379 z"
       id="path3430"
       inkscape:connector-curvature="0" />
    <path
       style="fill:#ff0000"
       d="m 406.23636,246.76208 c -0.88884,-0.88884 -1.48166,-2.01674 -1.48166,-2.81901 0,-0.73554 6.97149,-17.68024 15.4922,-37.65488 l 15.4922,-36.31753 -15.49489,-36.26283 c -8.52219,-19.94456 -15.49368,-36.673335 -15.4922,-37.175058 0.0122,-4.152311 5.22526,-6.250773 8.01582,-3.226705 1.43855,1.558935 32.68466,74.778583 32.69876,76.623713 0.009,1.22659 -29.09395,70.46623 -31.89918,75.89124 -1.47664,2.85566 -4.96825,3.30386 -7.33105,0.94106 z"
       id="path3432"
       inkscape:connector-curvature="0" />
  </g>
</svg>
