<?xml version="1.0" encoding="UTF-8" standalone="no"?>
<!-- Created with Inkscape (http://www.inkscape.org/) -->

<svg
   xmlns:dc="http://purl.org/dc/elements/1.1/"
   xmlns:cc="http://creativecommons.org/ns#"
   xmlns:rdf="http://www.w3.org/1999/02/22-rdf-syntax-ns#"
   xmlns:svg="http://www.w3.org/2000/svg"
   xmlns="http://www.w3.org/2000/svg"
   xmlns:sodipodi="http://sodipodi.sourceforge.net/DTD/sodipodi-0.dtd"
   xmlns:inkscape="http://www.inkscape.org/namespaces/inkscape"
   width="297mm"
   height="210mm"
   viewBox="0 0 1052.3622 744.09448"
   id="svg2"
   version="1.1"
   inkscape:version="0.91 r13725"
   sodipodi:docname="logo44.svg">
  <defs
     id="defs4" />
  <sodipodi:namedview
     id="base"
     pagecolor="#ffffff"
     bordercolor="#666666"
     borderopacity="1.0"
     inkscape:pageopacity="0.0"
     inkscape:pageshadow="2"
     inkscape:zoom="0.63"
     inkscape:cx="516.28929"
     inkscape:cy="487.25739"
     inkscape:document-units="px"
     inkscape:current-layer="layer1"
     showgrid="false"
     inkscape:window-width="1366"
     inkscape:window-height="724"
     inkscape:window-x="0"
     inkscape:window-y="0"
     inkscape:window-maximized="1" />
  <metadata
     id="metadata7">
    <rdf:RDF>
      <cc:Work
         rdf:about="">
        <dc:format>image/svg+xml</dc:format>
        <dc:type
           rdf:resource="http://purl.org/dc/dcmitype/StillImage" />
        <dc:title></dc:title>
      </cc:Work>
    </rdf:RDF>
  </metadata>
  <g
     inkscape:label="Layer 1"
     inkscape:groupmode="layer"
     id="layer1"
     transform="translate(0,-308.26772)">
    <path
       style="font-style:normal;font-variant:normal;font-weight:normal;font-stretch:normal;font-size:75px;line-height:125%;font-family:sans-serif;-inkscape-font-specification:'sans-serif, Normal';text-align:start;letter-spacing:0px;word-spacing:0px;writing-mode:lr-tb;text-anchor:start;fill:#ffffff;fill-opacity:1;stroke:none;stroke-width:1px;stroke-linecap:butt;stroke-linejoin:miter;stroke-opacity:1"
       d="m 139.8265,569.88471 0,112.1821 61.33937,0 0,-12.77151 -48.45807,0 0,-40.65068 45.33292,0 0,-12.7754 -45.33292,0 0,-33.20905 47.30867,0 0,-12.77546 -60.18997,0 z m 325.75303,0 0,21.86811 31.62518,0 0,90.31399 24.54862,0 0,-90.31399 31.56063,0 0,-21.86811 -87.73443,0 z m 100.35728,0 0,112.1821 24.54863,0 0,-112.1821 -24.54863,0 z m 48.45809,0 0,112.1821 67.65062,0 0,-21.86422 -43.10199,0 0,-90.31788 -24.54863,0 z m 83.39863,0 0,112.1821 67.65083,0 0,-21.86422 -43.1021,0 0,-25.69924 39.21185,0 0,-21.86416 -39.21185,0 0,-20.88637 41.70108,0 0,-21.86811 -66.24981,0 z m 131.66631,0 0,112.1821 12.88126,0 0,-112.1821 -12.88126,0 z m -489.49033,25.99977 c -5.65345,0 -10.45503,1.25023 -14.40821,3.75492 -3.95314,2.45452 -7.16156,6.23944 -9.62697,11.34876 l 0,-13.07596 -11.7965,0 0,84.15461 11.7965,0 0,-44.32949 c 0,-9.51744 1.76319,-16.80885 5.29124,-21.8681 3.57062,-5.10936 8.67146,-7.66218 15.30256,-7.66218 1.87033,0 3.57063,0.22648 5.10086,0.67729 1.57278,0.40073 3.01802,1.04992 4.33575,1.95164 l -0.0646,-14.20212 c -1.19018,-0.2505 -2.27327,-0.42483 -3.25096,-0.52494 -0.97764,-0.1487 -1.87201,-0.22443 -2.67966,-0.22443 z m 43.42189,0 c -10.24423,0 -18.27632,3.9071 -24.0998,11.72151 -5.78097,7.81432 -8.67146,18.63424 -8.67146,32.4596 0,13.77534 2.89049,24.59524 8.67146,32.45963 5.82348,7.81439 13.85557,11.72162 24.0998,11.72162 10.20164,0 18.21503,-3.90723 24.03849,-11.72162 5.82345,-7.86439 8.73604,-18.68429 8.73604,-32.45963 0,-13.82536 -2.91259,-24.64528 -8.73604,-32.4596 -5.82346,-7.81441 -13.83685,-11.72151 -24.03849,-11.72151 z m 518.50049,0 c -4.97335,0 -9.37195,1.25023 -13.19763,3.75492 -3.78308,2.5046 -7.07654,6.28948 -9.88195,11.34876 l 0,-13.07596 -11.79659,0 0,84.15461 11.79659,0 0,-47.56346 c 0,-8.21507 1.82604,-14.7009 5.48165,-19.45971 3.65554,-4.75867 8.64936,-7.13711 14.98276,-7.13711 5.27089,0 9.22572,1.9776 11.8612,5.9349 2.63549,3.95734 3.95153,9.92023 3.95153,17.88484 l 0,50.34054 11.73182,0 0,-50.79335 c 0,-11.62139 -2.10326,-20.41147 -6.3114,-26.37238 -4.20814,-6.01105 -10.41415,-9.0166 -18.61798,-9.0166 z m 79.25344,0 c -11.13684,0 -19.91203,3.93314 -26.33059,11.79767 -6.37601,7.86442 -9.56579,18.65821 -9.56579,32.38344 0,13.52491 3.1677,24.27058 9.50118,32.23527 6.33356,7.9646 14.87576,11.94598 25.63006,11.94598 3.95284,0 7.67469,-0.45281 11.16023,-1.3545 3.52807,-0.90164 6.92869,-2.2521 10.20178,-4.05546 l 0,-12.77547 c -3.31555,2.15394 -6.65333,3.7829 -10.01132,4.885 -3.31547,1.05187 -6.67525,1.57881 -10.07548,1.57881 -7.60876,0 -13.51563,-2.83116 -17.72377,-8.49155 -4.20814,-5.71055 -6.31141,-13.69922 -6.31141,-23.96808 0,-10.26884 2.10327,-18.23552 6.31141,-23.89587 4.20814,-5.71048 10.11501,-8.56373 17.72377,-8.56373 3.40023,0 6.76001,0.54902 10.07548,1.65107 3.35799,1.05189 6.69577,2.65485 10.01132,4.80882 l 0,-12.92373 c -3.23055,-1.75326 -6.56824,-3.05565 -10.01132,-3.9072 -3.44309,-0.9017 -6.97286,-1.35047 -10.58555,-1.35047 z m -760.66126,2.02772 0,50.94555 c 0,11.5713 2.12528,20.36141 6.37601,26.37243 4.25071,6.0111 10.47885,9.01666 18.68271,9.01666 4.97328,0 9.32772,-1.22825 13.06832,-3.6828 3.78318,-2.50461 7.09873,-6.31159 9.94668,-11.42098 l 0,12.92375 11.73192,0 0,-84.15461 -11.73192,0 0,47.7116 c 0,8.21516 -1.84818,14.70506 -5.54631,19.46375 -3.65563,4.7588 -8.64938,7.1371 -14.98288,7.1371 -5.27087,0 -9.22573,-1.97764 -11.86118,-5.93482 -2.63541,-4.00736 -3.95141,-9.99638 -3.95141,-17.96103 l 0,-50.4166 -11.73194,0 z m 162.90733,9.69379 c 6.24845,0 11.20142,2.9314 14.85701,8.79217 3.65559,5.81064 5.48166,13.69909 5.48166,23.66743 0,10.01843 -1.82607,17.93299 -5.48166,23.74365 -3.65559,5.81075 -8.60856,8.71598 -14.85701,8.71598 -6.33355,0 -11.32727,-2.87923 -14.98286,-8.63982 -3.6131,-5.81067 -5.42049,-13.75128 -5.42049,-23.81981 0,-10.06843 1.8295,-17.98303 5.48511,-23.74355 3.65557,-5.81075 8.62719,-8.71605 14.91824,-8.71605 z M 153.93541,855.33723 c 0.16486,0.13656 0.33068,0.27455 0.49308,0.41662 l 0,-0.41662 -0.49308,0 z"
       id="text3336"
       inkscape:connector-curvature="0" />
    <path
       style="fill:none;stroke:#f70000;stroke-width:18.90055466;stroke-linecap:butt;stroke-linejoin:miter;stroke-miterlimit:4;stroke-dasharray:none;stroke-opacity:1"
       d="M 97.163422,723.10281 C 1097.0442,717.24067 1097.0442,717.24067 1097.0442,717.24067"
       id="path3342"
       inkscape:connector-curvature="0" />
    <path
       style="fill:#ffff00;stroke:#f70000;stroke-width:18.90055466;stroke-linecap:butt;stroke-linejoin:miter;stroke-miterlimit:4;stroke-dasharray:none;stroke-opacity:1"
       d="m 445.58415,528.68493 c 0,399.11138 2.38719,390.68182 2.38719,390.68182 l -2.38719,-390.68182 z"
       id="path3344"
       inkscape:connector-curvature="0" />
    <text
       xml:space="preserve"
       style="font-style:normal;font-variant:normal;font-weight:normal;font-stretch:normal;font-size:75px;line-height:125%;font-family:sans-serif;-inkscape-font-specification:'sans-serif, Normal';text-align:start;letter-spacing:0px;word-spacing:0px;writing-mode:lr-tb;text-anchor:start;fill:#000000;fill-opacity:1;stroke:none;stroke-width:1px;stroke-linecap:butt;stroke-linejoin:miter;stroke-opacity:1"
       x="314.37085"
       y="538.7027"
       id="text4164"
       sodipodi:linespacing="125%"><tspan
         sodipodi:role="line"
         id="tspan4166"
         x="314.37085"
         y="538.7027" /></text>
    <text
       xml:space="preserve"
       style="font-style:normal;font-variant:normal;font-weight:normal;font-stretch:normal;font-size:75px;line-height:125%;font-family:sans-serif;-inkscape-font-specification:'sans-serif, Normal';text-align:start;letter-spacing:0px;word-spacing:0px;writing-mode:lr-tb;text-anchor:start;fill:#000000;fill-opacity:1;stroke:none;stroke-width:1px;stroke-linecap:butt;stroke-linejoin:miter;stroke-opacity:1"
       x="314.37085"
       y="555.54401"
       id="text4168"
       sodipodi:linespacing="125%"><tspan
         sodipodi:role="line"
         id="tspan4170"
         x="314.37085"
         y="555.54401"
         style="font-style:normal;font-variant:normal;font-weight:normal;font-stretch:normal;font-size:50px;line-height:125%;font-family:sans-serif;-inkscape-font-specification:'sans-serif, Normal';text-align:start;writing-mode:lr-tb;text-anchor:start" /></text>
    <text
       xml:space="preserve"
       style="font-style:normal;font-variant:normal;font-weight:normal;font-stretch:normal;font-size:141.75415039px;line-height:125%;font-family:sans-serif;-inkscape-font-specification:'sans-serif, Normal';text-align:start;letter-spacing:0px;word-spacing:0px;writing-mode:lr-tb;text-anchor:start;fill:#ffffff;fill-opacity:1;stroke:none;stroke-width:1px;stroke-linecap:butt;stroke-linejoin:miter;stroke-opacity:1"
       x="516.0498"
       y="810.53851"
       id="text4172"
       sodipodi:linespacing="125%"
       transform="scale(0.92118287,1.0855608)"><tspan
         sodipodi:role="line"
         id="tspan4174"
         x="516.0498"
         y="810.53851"
         style="font-style:normal;font-variant:normal;font-weight:normal;font-stretch:normal;font-size:94.50276184px;line-height:125%;font-family:sans-serif;-inkscape-font-specification:'sans-serif, Normal';text-align:start;writing-mode:lr-tb;text-anchor:start;fill:#ffffff">828-312-4291</tspan></text>
  </g>
</svg>
