<?xml version="1.0" encoding="UTF-8" standalone="no"?>
<!-- Created with Inkscape (http://www.inkscape.org/) -->

<svg
   xmlns:dc="http://purl.org/dc/elements/1.1/"
   xmlns:cc="http://creativecommons.org/ns#"
   xmlns:rdf="http://www.w3.org/1999/02/22-rdf-syntax-ns#"
   xmlns:svg="http://www.w3.org/2000/svg"
   xmlns="http://www.w3.org/2000/svg"
   xmlns:sodipodi="http://sodipodi.sourceforge.net/DTD/sodipodi-0.dtd"
   xmlns:inkscape="http://www.inkscape.org/namespaces/inkscape"
   width="297mm"
   height="210mm"
   viewBox="0 0 1052.3622 744.09448"
   id="svg2"
   version="1.1"
   inkscape:version="0.91 r13725"
   sodipodi:docname="logo44.svg">
  <defs
     id="defs4" />
  <sodipodi:namedview
     id="base"
     pagecolor="#ffffff"
     bordercolor="#666666"
     borderopacity="1.0"
     inkscape:pageopacity="0.0"
     inkscape:pageshadow="2"
     inkscape:zoom="0.63"
     inkscape:cx="516.28929"
     inkscape:cy="487.25739"
     inkscape:document-units="px"
     inkscape:current-layer="layer1"
     showgrid="false"
     inkscape:window-width="1366"
     inkscape:window-height="724"
     inkscape:window-x="0"
     inkscape:window-y="0"
     inkscape:window-maximized="1" />
  <metadata
     id="metadata7">
    <rdf:RDF>
      <cc:Work
         rdf:about="">
        <dc:format>image/svg+xml</dc:format>
        <dc:type
           rdf:resource="http://purl.org/dc/dcmitype/StillImage" />
        <dc:title></dc:title>
      </cc:Work>
    </rdf:RDF>
  </metadata>
  <g
     inkscape:label="Layer 1"
     inkscape:groupmode="layer"
     id="layer1"
     transform="translate(0,-308.26772)">
    <path
       style="font-style:normal;font-variant:normal;font-weight:normal;font-stretch:normal;font-size:75px;line-height:125%;font-family:sans-serif;-inkscape-font-specification:'sans-serif, Normal';text-align:start;letter-spacing:0px;word-spacing:0px;writing-mode:lr-tb;text-anchor:start;fill:#ffffff;fill-opacity:1;stroke:none;stroke-width:1px;stroke-linecap:butt;stroke-linejoin:miter;stroke-opacity:1"
       d="m 139.83726,375.95384 0,112.15079 61.33816,0 0,-12.76795 -48.45711,0 0,-40.63933 45.33202,0 0,-12.77185 -45.33202,0 0,-33.19976 47.30774,0 0,-12.7719 -60.18879,0 z m 325.74662,0 0,21.862 31.62457,0 0,90.28879 24.54813,0 0,-90.28879 31.56001,0 0,-21.862 -87.73271,0 z m 100.3553,0 0,112.15079 24.54815,0 0,-112.15079 -24.54815,0 z m 48.45714,0 0,112.15079 67.6493,0 0,-21.85812 -43.10115,0 0,-90.29267 -24.54815,0 z m 83.397,0 0,112.15079 67.6495,0 0,-21.85812 -43.10126,0 0,-25.69207 39.21109,0 0,-21.85805 -39.21109,0 0,-20.88055 41.70027,0 0,-21.862 -66.24851,0 z m 131.66372,0 0,112.15079 12.88101,0 0,-112.15079 -12.88101,0 z m -489.4807,25.99252 c -5.65335,0 -10.45483,1.24987 -14.40793,3.75386 -3.95307,2.45384 -7.16142,6.2377 -9.62678,11.3456 l 0,-13.07232 -11.79626,0 0,84.13113 11.79626,0 0,-44.31712 c 0,-9.51479 1.76316,-16.80416 5.29113,-21.86201 3.57055,-5.10793 8.67129,-7.66003 15.30227,-7.66003 1.87029,0 3.57055,0.22641 5.10075,0.6771 1.57275,0.40063 3.01797,1.04964 4.33567,1.95109 l -0.0646,-14.19815 c -1.19015,-0.25043 -2.27322,-0.42471 -3.25088,-0.5248 -0.97764,-0.14865 -1.87198,-0.22435 -2.67961,-0.22435 z m 43.42103,0 c -10.24402,0 -18.27596,3.90601 -24.09932,11.71822 -5.78086,7.81214 -8.67129,18.62905 -8.67129,32.45055 0,13.7715 2.89043,24.58838 8.67129,32.45057 5.82336,7.81221 13.8553,11.71835 24.09932,11.71835 10.20144,0 18.21467,-3.90614 24.03801,-11.71835 5.82335,-7.86219 8.73587,-18.67907 8.73587,-32.45057 0,-13.8215 -2.91252,-24.63841 -8.73587,-32.45055 -5.82334,-7.81221 -13.83657,-11.71822 -24.03801,-11.71822 z m 518.49023,0 c -4.97322,0 -9.37171,1.24987 -13.1973,3.75386 -3.78304,2.5039 -7.0764,6.28772 -9.88181,11.3456 l 0,-13.07232 -11.79637,0 0,84.13113 11.79637,0 0,-47.55019 c 0,-8.21277 1.82605,-14.69679 5.48158,-19.45428 3.6555,-4.75734 8.64917,-7.13512 14.98253,-7.13512 5.27078,0 9.22554,1.97705 11.86093,5.93325 2.63541,3.95624 3.9514,9.91747 3.9514,17.87985 l 0,50.32649 11.73168,0 0,-50.77918 c 0,-11.61815 -2.10322,-20.40577 -6.31131,-26.36501 -4.20814,-6.00938 -10.41401,-9.01408 -18.6177,-9.01408 z m 79.25192,0 c -11.13664,0 -19.91162,3.93203 -26.33005,11.79436 -6.37593,7.86223 -9.5656,18.653 -9.5656,32.37441 0,13.52113 3.16758,24.26382 9.501,32.22628 6.33341,7.96237 14.87547,11.94264 25.62955,11.94264 3.95279,0 7.67452,-0.45268 11.16002,-1.35412 3.52803,-0.90139 6.92853,-2.25146 10.20156,-4.05433 l 0,-12.77191 c -3.31553,2.15334 -6.65313,3.78185 -10.01112,4.88364 -3.31548,1.05158 -6.67512,1.57837 -10.07527,1.57837 -7.60864,0 -13.51531,-2.83037 -17.7234,-8.48918 -4.20811,-5.70895 -6.31132,-13.69539 -6.31132,-23.96139 0,-10.26597 2.10321,-18.23044 6.31132,-23.88921 4.20809,-5.70888 10.11476,-8.56134 17.7234,-8.56134 3.40015,0 6.75979,0.54887 10.07527,1.65062 3.35799,1.0516 6.69559,2.65411 10.01112,4.80747 l 0,-12.92012 c -3.23052,-1.75278 -6.5681,-3.0548 -10.01112,-3.90611 -3.443,-0.90144 -6.97268,-1.35008 -10.58536,-1.35008 z m -760.64628,2.02714 0,50.93134 c 0,11.56807 2.12524,20.35572 6.37589,26.36507 4.25063,6.00942 10.47865,9.01414 18.68235,9.01414 4.97318,0 9.32753,-1.22791 13.06806,-3.68177 3.7831,-2.5039 7.09859,-6.30984 9.94649,-11.41779 l 0,12.92014 11.73168,0 0,-84.13113 -11.73168,0 0,47.69828 c 0,8.21287 -1.84815,14.70096 -5.54621,19.45833 -3.65555,4.75748 -8.6492,7.13511 -14.98258,7.13511 -5.27078,0 -9.22555,-1.97709 -11.86095,-5.93316 -2.63535,-4.00626 -3.95134,-9.99359 -3.95134,-17.95603 l 0,-50.40253 -11.73171,0 z m 162.90413,9.69108 c 6.24833,0 11.2012,2.93058 14.85672,8.78973 3.65552,5.80902 5.48156,13.69526 5.48156,23.66082 0,10.01563 -1.82604,17.92798 -5.48156,23.73703 -3.65552,5.80912 -8.60839,8.71354 -14.85672,8.71354 -6.33343,0 -11.32705,-2.87843 -14.98257,-8.63741 -3.61302,-5.80905 -5.42038,-13.74744 -5.42038,-23.81316 0,-10.06562 1.82946,-17.97801 5.48501,-23.73692 3.65549,-5.80913 8.62702,-8.71363 14.91794,-8.71363 z M 153.9459,661.3267 c 0.16485,0.13652 0.33067,0.27446 0.49307,0.41651 l 0,-0.41651 -0.49307,0 z"
       id="text3336"
       inkscape:connector-curvature="0" />
    <path
       style="fill:none;stroke:#f70000;stroke-width:18.89773178;stroke-linecap:butt;stroke-linejoin:miter;stroke-miterlimit:4;stroke-dasharray:none;stroke-opacity:1"
       d="M 97.175027,529.12917 C 1097.0362,523.26868 1097.0362,523.26868 1097.0362,523.26868"
       id="path3342"
       inkscape:connector-curvature="0" />
    <path
       style="fill:#ffff00;stroke:#f70000;stroke-width:18.89773178;stroke-linecap:butt;stroke-linejoin:miter;stroke-miterlimit:4;stroke-dasharray:none;stroke-opacity:1"
       d="m 445.5889,334.76556 c 0,399 2.38715,390.57279 2.38715,390.57279 L 445.5889,334.76556 Z"
       id="path3344"
       inkscape:connector-curvature="0" />
    <text
       xml:space="preserve"
       style="font-style:normal;font-variant:normal;font-weight:normal;font-stretch:normal;font-size:75px;line-height:125%;font-family:sans-serif;-inkscape-font-specification:'sans-serif, Normal';text-align:start;letter-spacing:0px;word-spacing:0px;writing-mode:lr-tb;text-anchor:start;fill:#000000;fill-opacity:1;stroke:none;stroke-width:1px;stroke-linecap:butt;stroke-linejoin:miter;stroke-opacity:1"
       x="314.37085"
       y="538.7027"
       id="text4164"
       sodipodi:linespacing="125%"><tspan
         sodipodi:role="line"
         id="tspan4166"
         x="314.37085"
         y="538.7027" /></text>
    <text
       xml:space="preserve"
       style="font-style:normal;font-variant:normal;font-weight:normal;font-stretch:normal;font-size:75px;line-height:125%;font-family:sans-serif;-inkscape-font-specification:'sans-serif, Normal';text-align:start;letter-spacing:0px;word-spacing:0px;writing-mode:lr-tb;text-anchor:start;fill:#000000;fill-opacity:1;stroke:none;stroke-width:1px;stroke-linecap:butt;stroke-linejoin:miter;stroke-opacity:1"
       x="314.37085"
       y="555.54401"
       id="text4168"
       sodipodi:linespacing="125%"><tspan
         sodipodi:role="line"
         id="tspan4170"
         x="314.37085"
         y="555.54401"
         style="font-style:normal;font-variant:normal;font-weight:normal;font-stretch:normal;font-size:50px;line-height:125%;font-family:sans-serif;-inkscape-font-specification:'sans-serif, Normal';text-align:start;writing-mode:lr-tb;text-anchor:start" /></text>
    <text
       xml:space="preserve"
       style="font-style:normal;font-variant:normal;font-weight:normal;font-stretch:normal;font-size:141.73295593px;line-height:125%;font-family:sans-serif;-inkscape-font-specification:'sans-serif, Normal';text-align:start;letter-spacing:0px;word-spacing:0px;writing-mode:lr-tb;text-anchor:start;fill:#ffffff;fill-opacity:1;stroke:none;stroke-width:1px;stroke-linecap:butt;stroke-linejoin:miter;stroke-opacity:1;"
       x="515.9873"
       y="631.89551"
       id="text4172"
       sodipodi:linespacing="125%"
       transform="scale(0.92130235,1.08542)"><tspan
         sodipodi:role="line"
         id="tspan4174"
         x="515.9873"
         y="631.89551"
         style="font-style:normal;font-variant:normal;font-weight:normal;font-stretch:normal;font-size:94.48864746px;line-height:125%;font-family:sans-serif;-inkscape-font-specification:'sans-serif, Normal';text-align:start;writing-mode:lr-tb;text-anchor:start;fill:#ffffff;">828-312-4291</tspan></text>
  </g>
</svg>
